{"title":"Iron Man And Hulk-Heroes United 2013 BDRiP AC3-5 1 XviD-AXED   ","uid":9244395,"size":1063543230,"categoryP":"video","categoryS":"movies","magnet":"?xt=urn:btih:8f74a89833efb152854ba81d9986f06744573543&amp;dn=Iron+Man+And+Hulk-Heroes+United+2013+BDRiP+AC3-5+1+XviD-AXED+++&amp;tr=udp%3A%2F%2Ftracker.openbittorrent.com%3A80&amp;tr=udp%3A%2F%2Fopen.demonii.com%3A1337&amp;tr=udp%3A%2F%2Ftracker.coppersurfer.tk%3A6969&amp;tr=udp%3A%2F%2Fexodus.desync.com%3A6969","seeders":1,"leechers":1,"uploader":".BONE.","files":4,"time":1385348609,"description":"Iron Man and the Hulk team up in groundbreaking Marvel CG Animation. \n\nIMDB: &lt;a href=&quot;\nhttp://www.imdb.com/title/tt3221698&quot; rel=&quot;nofollow&quot; target=&quot;_NEW&quot;&gt;\nhttp://www.imdb.com/title/tt3221698&lt;/a&gt;\n\nPLOT INFO:\nIron Man and the Hulk team up in groundbreaking Marvel CG Animation.\n\nMedia Info:\nGeneral\nComplete name                            : Iron.Man.And.Hulk-Heroes.United.2013.BDRiP.AC3-5.1.XviD-AXED.avi\nFormat                                   : AVI\nFormat/Info                              : Audio Video Interleave\nFile size                                : 1 001 MiB\nDuration                                 : 1h 11mn\nOverall bit rate                         : 1 950 Kbps\n\nVideo\nID                                       : 0\nFormat                                   : MPEG-4 Visual\nFormat profile                           : Advanced Simple@L5\nFormat settings, BVOP                    : 2\nFormat settings, QPel                    : No\nFormat settings, GMC                     : No warppoints\nFormat settings, Matrix                  : Default (H.263)\nMuxing mode                              : Packed bitstream\nCodec ID                                 : XVID\nCodec ID/Hint                            : XviD\nDuration                                 : 1h 11mn\nBit rate                                 : 1 494 Kbps\nWidth                                    : 720 pixels\nHeight                                   : 400 pixels\nDisplay aspect ratio                     : 16:9\nFrame rate                               : 23.976 fps\nColor space                              : YUV\nChroma subsampling                       : 4:2:0\nBit depth                                : 8 bits\nScan type                                : Progressive\nCompression mode                         : Lossy\nBits/(Pixel*Frame)                       : 0.216\nStream size                              : 767 MiB (77%)\nWriting library                          : XviD 64\n\nAudio\nID                                       : 1\nFormat                                   : AC-3\nFormat/Info                              : Audio Coding 3\nMode extension                           : CM (complete main)\nFormat settings, Endianness              : Big\nCodec ID                                 : 2000\nDuration                                 : 1h 11mn\nBit rate mode                            : Constant\nBit rate                                 : 448 Kbps\nChannel(s)                               : 6 channels\nChannel positions                        : Front: L C R, Side: L R, LFE\nSampling rate                            : 48.0 KHz\nBit depth                                : 16 bits\nCompression mode                         : Lossy\nStream size                              : 230 MiB (23%)\nAlignment                                : Aligned on interleaves\nInterleave, duration                     : 64 ms (1.53 video frames)\nInterleave, preload duration             : 192 ms\nTitle                                    : ironmanhulkheroesunited\n\n\n\nSOURCE:\nRetail RA Blu-Ray DISC\n\nNOTES:\nEnjoy a nice xvid encode from the Retail RA Blu-Ray of the latest Marvel Animated/CGI Film.\n\nAXED! Enter witty comment here.\n","torrent":{"xt":"urn:btih:8f74a89833efb152854ba81d9986f06744573543","amp;dn":"Iron+Man+And+Hulk-Heroes+United+2013+BDRiP+AC3-5+1+XviD-AXED+++","amp;tr":["udp%3A%2F%2Ftracker.openbittorrent.com%3A80","udp%3A%2F%2Fopen.demonii.com%3A1337","udp%3A%2F%2Ftracker.coppersurfer.tk%3A6969","udp%3A%2F%2Fexodus.desync.com%3A6969"],"infoHash":"8f74a89833efb152854ba81d9986f06744573543","infoHashBuffer":{"type":"Buffer","data":[143,116,168,152,51,239,177,82,133,75,168,29,153,134,240,103,68,87,53,67]},"announce":[],"urlList":[]}}